<?xml version="1.0" encoding="utf-8"?>
<!-- Generator: Adobe Illustrator 25.2.0, SVG Export Plug-In . SVG Version: 6.00 Build 0)  -->
<svg version="1.1" id="Layer_1" xmlns="http://www.w3.org/2000/svg" xmlns:xlink="http://www.w3.org/1999/xlink" x="0px" y="0px"
	 viewBox="0 0 862 242" style="enable-background:new 0 0 862 242;" xml:space="preserve">
<style type="text/css">
	.st0{fill:#FFE9FF;}
	.st1{fill:#9056D9;enable-background:new    ;}
	.st2{fill:#9056D9;}
	.st3{fill:#2A0054;}
</style>
<path class="st0" d="M636.8,4C698.2,4,748,33.4,748,69.7c0,36.3-49.8,65.7-111.2,65.7c-61.4,0-111.2-29.4-111.2-65.7
	C525.6,33.4,575.4,4,636.8,4z"/>
<path class="st0" d="M547.4,142.8c-2.4,1.2-5-1-4.2-3.6l4.6-14.8l5.4-17.3c0.6-2,3.2-2.8,4.8-1.4l10,8.3l10,8.4c1.6,1.4,1.3,4-0.6,5
	l-16.1,8.3L547.4,142.8z"/>
<g>
	<path class="st1" d="M265.5,160L265.5,160h8l0,0H265.5z M319.3,109.5L319.3,109.5h-9.6l0,0H319.3z M279.5,110.8
		c-3.4,1.4-6.2,3.2-8.4,5.5c-2.2,2.3-3.8,4.7-4.7,7.4c-1,2.6-1.5,5.3-1.5,7.9c0,3.8,0.8,7,2.4,9.6c1.6,2.6,3.6,4.8,6.2,6.6
		c2.6,1.8,5.4,3.3,8.4,4.6c3.1,1.3,6.1,2.5,9.2,3.6c3.4,1.3,6.5,2.5,9,3.7c2.6,1.2,4.6,2.4,6,3.8c1.4,1.4,2.2,3.1,2.2,5.3
		c0,2-0.6,3.7-1.9,5s-2.8,2.3-4.6,2.9c-1.8,0.6-3.7,0.9-5.7,0.9c-4,0-7.7-0.8-11-2.3c-3.3-1.5-6-3.6-8.1-6.3c-2.1-2.7-3.2-5.7-3.5-9
		h-8l0.7,25.1h9.6l-0.5-4.7c2.4,1.7,5.5,3.1,9.5,4.2c3.9,1.2,8.2,1.8,12.7,1.8c4.4,0,8.7-0.8,12.7-2.4c4-1.6,7.3-4,9.9-7.3
		c2.6-3.3,3.9-7.4,3.9-12.5c0-4.5-1.1-8.2-3.4-11.2c-2.3-3-5.3-5.6-9.1-7.7c-3.8-2.1-8-4-12.6-5.6c-3.4-1.3-6.5-2.4-9.3-3.5
		c-2.9-1.1-5.1-2.4-6.8-3.9c-1.7-1.6-2.5-3.6-2.5-6c0-2.9,1.1-5.1,3.3-6.6c2.2-1.5,4.8-2.3,8-2.3c3.8,0,7.1,0.8,9.9,2.3
		c2.8,1.6,5,3.7,6.7,6.4c1.7,2.7,2.8,5.7,3.3,9.1h8v-25.7h-9.6l0.1,4.7c-2.6-2-5.5-3.3-8.9-4.2c-3.4-0.8-6.4-1.2-9-1.2
		C287,108.7,282.9,109.4,279.5,110.8z"/>
	<path class="st2" d="M359.2,131.7L359.2,131.7l5.6,18.7l0,0L359.2,131.7z M425.2,130.9L425.2,130.9l-7.1,21.6v0L425.2,130.9z
		 M384.7,111.1L384.7,111.1L373,148.5v0L384.7,111.1z M397.4,111.1L397.4,111.1h-12.7l0,0H397.4z M410.2,152.1L410.2,152.1l-12.9-41
		l0,0L410.2,152.1z M364.4,111.1L364.4,111.1h-34.2l0,0H364.4z M448.2,111.1L448.2,111.1H421l0,0H448.2z M421,111.1v9.3l8.4-0.4
		c-0.9,1.5-1.7,3.1-2.3,4.8c-0.6,1.7-1.3,3.8-2,6.1l-7.1,21.6c-0.7,1.9-1.4,4.1-2.1,6.4c-0.7,2.3-1.3,4.4-1.8,6.3
		c-0.6-2-1.2-4.2-1.9-6.6c-0.7-2.3-1.4-4.5-2.1-6.6l-12.9-41h-12.7L373,148.5c-1,3.3-1.8,6.2-2.5,8.7c-0.7,2.5-1.3,4.8-1.9,7.1
		c-0.5-2.3-1.1-4.7-1.7-7.1c-0.6-2.4-1.3-4.6-2-6.8l-5.6-18.7c-1-3.6-1.3-6.6-0.8-9.1c0.5-2.4,2.4-3.7,6-3.8v-7.7h-34.2v9.3l6.5-0.3
		c0.3,1.1,0.5,2.1,0.7,3c0.2,0.9,0.5,2,1,3.4c0.5,1.3,1.1,3.2,1.9,5.6l18.5,52.4h11.5l10.1-29.3c0.5-1.3,1.1-3.2,1.9-5.7
		c0.8-2.5,1.6-5.3,2.4-8.2c0.8-2.9,1.6-5.6,2.2-7.9c0.6,1.9,1.2,4,1.8,6.1c0.6,2.1,1.2,4.2,1.8,6.1c0.6,1.9,1.2,3.5,1.6,4.8l11.5,34
		h12.4l18.3-51.4c0.4-1.3,0.9-2.7,1.6-4.2c0.7-1.6,1.6-3.1,2.7-4.7c1.1-1.6,2.4-2.8,3.9-3.9c1.5-1,3.4-1.5,5.5-1.5v-7.7H421z"/>
	<path class="st2" d="M482.1,111.1L482.1,111.1h17.6l0,0H482.1z M464.1,111.1L464.1,111.1h-11.2l0,0H464.1z M471.3,81.8
		c-4.8,5.5-7.2,14-7.2,25.5v3.8h-11.2v10.2l11.2-0.1l0.2,40.6c0,2.8-0.2,5.4-0.4,7.6c-0.3,2.2-1.1,4-2.3,5.2
		c-1.2,1.2-3.3,1.8-6.1,1.8v7.7h36.4v-9.3c-1.2,0-2.7,0-4.7,0.1c-1.9,0-3.7,0.2-5.4,0.4c0.3-2,0.5-4.2,0.5-6.4
		c0-2.2,0.1-4.1,0.1-5.7l-0.1-42.2l17.6-0.4v-9.3h-17.6V94c0-1.9,0.2-3.8,0.6-5.6c0.4-1.7,1.2-3.2,2.4-4.4c1.2-1.2,2.8-1.8,4.9-1.8
		c0.7,0,1.4,0.1,2.3,0.4c0.8,0.3,1.5,0.7,2,1.2c-0.1,0.6-0.2,1.1-0.3,1.6c-0.1,0.5-0.1,1-0.1,1.6c0,2,0.7,3.7,2.1,5.3
		c1.3,1.5,3.2,2.2,5.6,2.2c0.1,0,0.3,0,0.4,0c2.7,0,4.7-0.9,6.1-2.6c1.4-1.8,2.1-3.8,2.1-6c0-2.2-0.7-4.3-2.1-6.1
		c-1.4-1.8-3.4-3.3-6-4.5c-2.6-1.1-5.8-1.7-9.7-1.7C483.1,73.6,476.1,76.3,471.3,81.8z"/>
</g>
<path class="st3" d="M580.6,82c-2.4,0-4.6-0.5-6.5-1.6c-2-1.1-3.5-2.6-4.6-4.5c-1.1-1.9-1.7-4.2-1.7-6.8c0-2.7,0.6-5.2,1.7-7.3
	c1.1-2.1,2.7-3.8,4.6-5c1.9-1.2,4.1-1.8,6.4-1.8c2.4,0,4.6,0.5,6.5,1.6c1.9,1.1,3.5,2.6,4.6,4.5c1.1,1.9,1.7,4.2,1.7,6.9
	c0,2.8-0.6,5.2-1.6,7.3c-1.1,2.1-2.6,3.8-4.5,4.9C585.2,81.4,583,82,580.6,82z M580.8,78.9c1.5,0,2.7-0.5,3.5-1.4
	c0.8-0.9,1.4-2.2,1.7-3.6c0.3-1.5,0.5-3,0.5-4.5c0-1.3-0.1-2.7-0.3-4c-0.2-1.4-0.6-2.6-1-3.7c-0.5-1.1-1.1-2-1.9-2.6
	c-0.8-0.7-1.7-1-2.8-1c-1.5,0-2.7,0.5-3.6,1.5c-0.9,0.9-1.5,2.1-1.9,3.6c-0.4,1.5-0.6,3-0.6,4.6c0,1.8,0.2,3.6,0.7,5.4
	c0.4,1.7,1.1,3.2,2.1,4.3C578.1,78.4,579.3,79,580.8,78.9z M597.1,81.2v-2.7c1,0,1.7-0.2,2.1-0.6c0.4-0.4,0.7-1,0.8-1.8
	c0.1-0.8,0.2-1.7,0.2-2.6v-9.5c0-0.6,0-1.3,0.1-1.9c0-0.7,0.1-1.4,0.2-2.1c-0.5,0-1.2,0.1-1.9,0.1c-0.7,0-1.3,0.1-1.7,0.1v-3.3
	c1.5,0,2.8-0.1,3.8-0.2c1-0.2,1.7-0.3,2.3-0.6c0.5-0.2,0.9-0.5,1.2-0.7h2.1c0.1,0.4,0.1,0.7,0.1,0.9c0,0.2,0,0.5,0.1,0.7
	c0,0.3,0.1,0.6,0.2,1.1c0.7-0.6,1.5-1.1,2.4-1.5c0.9-0.5,1.8-0.8,2.7-1.1c0.9-0.3,1.8-0.4,2.5-0.4c3,0,5.2,0.9,6.5,2.7
	c1.3,1.8,2,4.7,2,8.6v7.7c0,0.5,0,1.2,0,2c0,0.8-0.1,1.5-0.2,2.2c0.6-0.1,1.2-0.1,1.8-0.1c0.6,0,1.1,0,1.5,0v3.2h-12.3v-2.7
	c1,0,1.7-0.2,2.1-0.6c0.4-0.4,0.7-1,0.8-1.8c0.1-0.8,0.2-1.7,0.2-2.6l-0.1-7.2c0-2.4-0.4-4.3-1.1-5.5c-0.7-1.2-1.9-1.8-3.6-1.8
	c-1,0-1.9,0.3-2.9,0.7c-0.9,0.4-1.7,1-2.4,1.7c0,0.4,0.1,0.8,0.1,1.3c0,0.4,0,0.9,0,1.3l-0.1,10c0,0.5,0,1.2,0,2
	c0,0.8-0.1,1.5-0.2,2.2c0.5-0.1,1.1-0.1,1.8-0.1c0.6,0,1.1,0,1.5,0v3.2H597.1z M628.2,78.5c1,0,1.7-0.2,2.1-0.6
	c0.4-0.4,0.7-1,0.8-1.8c0.1-0.8,0.1-1.7,0.1-2.6V51.5c0-0.6,0-1.2,0.1-1.9c0-0.7,0.1-1.4,0.2-2.2c-0.6,0-1.2,0.1-1.9,0.1
	c-0.7,0-1.3,0.1-1.7,0.1v-3.3c1.6,0,2.8-0.1,3.8-0.2c1-0.2,1.8-0.3,2.3-0.6c0.6-0.2,1-0.5,1.2-0.7h2.3l0.1,31.1c0,0.5,0,1.2-0.1,2
	c0,0.8-0.1,1.5-0.2,2.2c0.6-0.1,1.2-0.1,1.8-0.1c0.6,0,1.1,0,1.5,0v3.2h-12.3V78.5z M644,78.5c1,0,1.7-0.2,2.1-0.6
	c0.4-0.4,0.7-1,0.8-1.8c0.1-0.8,0.2-1.7,0.2-2.6v-9.5c0-0.6,0-1.2,0.1-1.9c0-0.7,0.1-1.4,0.2-2.2c-0.6,0-1.2,0.1-1.9,0.1
	c-0.7,0-1.2,0.1-1.7,0.1v-3.3c1.5,0,2.8-0.1,3.8-0.2c1-0.2,1.8-0.3,2.3-0.6c0.6-0.2,1-0.5,1.2-0.7h2.3v18.6c0,0.5,0,1.2,0,2
	c0,0.8-0.1,1.5-0.2,2.2c0.5-0.1,1.1-0.1,1.8-0.1c0.6,0,1.1,0,1.5,0v3.2H644V78.5z M649.9,51c-1,0-1.8-0.4-2.5-1.1
	c-0.7-0.7-1-1.6-1-2.7c0-1,0.3-1.9,1-2.7c0.7-0.7,1.5-1.1,2.5-1.1c1,0,1.8,0.4,2.5,1.1c0.7,0.7,1,1.6,1,2.7c0,1-0.3,1.9-1,2.7
	C651.7,50.6,650.9,51,649.9,51z M659.9,81.2v-2.7c1,0,1.7-0.2,2.1-0.6c0.4-0.4,0.7-1,0.8-1.8c0.1-0.8,0.2-1.7,0.2-2.6v-9.5
	c0-0.6,0-1.3,0.1-1.9c0-0.7,0.1-1.4,0.2-2.1c-0.5,0-1.2,0.1-1.9,0.1c-0.7,0-1.3,0.1-1.7,0.1v-3.3c1.5,0,2.8-0.1,3.8-0.2
	c1-0.2,1.7-0.3,2.3-0.6c0.5-0.2,0.9-0.5,1.2-0.7h2.1c0.1,0.4,0.1,0.7,0.1,0.9c0,0.2,0,0.5,0.1,0.7c0,0.3,0.1,0.6,0.2,1.1
	c0.7-0.6,1.5-1.1,2.4-1.5c0.9-0.5,1.8-0.8,2.7-1.1c0.9-0.3,1.8-0.4,2.5-0.4c3,0,5.2,0.9,6.5,2.7c1.3,1.8,2,4.7,2,8.6v7.7
	c0,0.5,0,1.2,0,2c0,0.8-0.1,1.5-0.2,2.2c0.6-0.1,1.2-0.1,1.8-0.1c0.6,0,1.1,0,1.5,0v3.2h-12.3v-2.7c1,0,1.7-0.2,2.1-0.6
	c0.4-0.4,0.7-1,0.8-1.8c0.1-0.8,0.2-1.7,0.2-2.6l-0.1-7.2c0-2.4-0.4-4.3-1.1-5.5c-0.7-1.2-1.9-1.8-3.6-1.8c-1,0-1.9,0.3-2.9,0.7
	c-0.9,0.4-1.7,1-2.4,1.7c0,0.4,0.1,0.8,0.1,1.3c0,0.4,0,0.9,0,1.3l-0.1,10c0,0.5,0,1.2,0,2c0,0.8-0.1,1.5-0.2,2.2
	c0.5-0.1,1.1-0.1,1.8-0.1c0.6,0,1.1,0,1.5,0v3.2H659.9z M703.8,82c-2.4,0-4.6-0.6-6.5-1.6c-1.9-1.1-3.4-2.7-4.4-4.7
	c-1-2-1.6-4.4-1.6-7.1c0-2.4,0.5-4.6,1.6-6.6c1-2.1,2.5-3.7,4.4-5c1.9-1.3,4.1-1.9,6.7-1.9c1.4,0,2.8,0.2,4.1,0.6s2.5,1.1,3.6,2
	c1,0.9,1.9,2.2,2.5,3.8c0.6,1.6,0.9,3.5,0.9,5.7l-17,0.3c0,2.1,0.2,3.9,0.7,5.6c0.5,1.6,1.3,2.9,2.4,3.8c1.1,0.9,2.6,1.4,4.4,1.4
	c0.8,0,1.7-0.1,2.6-0.4c0.9-0.3,1.9-0.7,2.8-1.3c0.9-0.6,1.7-1.3,2.4-2.2l1.9,1.8c-1.1,1.6-2.4,2.9-3.7,3.8
	c-1.4,0.9-2.7,1.5-4.1,1.8C706.2,81.9,704.9,82,703.8,82z M698.2,64.4h10.6c0-1.4-0.2-2.5-0.6-3.4c-0.4-0.9-0.9-1.6-1.5-2.1
	c-0.7-0.5-1.5-0.7-2.5-0.7c-1.7,0-3,0.6-4,1.6C699.2,60.8,698.5,62.4,698.2,64.4z"/>
</svg>
